<svg version="1.1" id="Layer_1" xmlns="http://www.w3.org/2000/svg" x="0" y="0" viewBox="0 0 16 16" xml:space="preserve"><style></style><path d="M16 8c0 4.4-3.6 8-8 8-1 0-2-.2-2.9-.6 1-.3 1.6-.9 1.6-2V5.3c0-1 .6-1.6 1.4-1.6.8 0 1.3.5 1.3 1.3 0 1.1-.5 1.5-1.8 1.5v1.7c1.4 0 2.1.5 2.1 1.8 0 1.1-.6 1.9-1.7 1.9h-.5v1.8c.3 0 .5.1.7.1 2 0 3.7-1.2 3.7-3.5 0-1.5-1-2.7-2.6-2.9v-.1c1.4-.3 2.1-1.1 2.1-2.4 0-1.7-1.3-2.8-3.4-2.8-2.7 0-3.7 1.7-3.7 4.5v6.5c0 .6-.3 1.1-1 1.1-.6 0-1.1-.5-1.5-.9l-.6-.9C.5 11.1 0 9.6 0 8c0-4.4 3.6-8 8-8s8 3.6 8 8z"/></svg>